<?xml version="1.0" standalone="no"?>
<!DOCTYPE svg PUBLIC "-//W3C//DTD SVG 20010904//EN"
 "http://www.w3.org/TR/2001/REC-SVG-20010904/DTD/svg10.dtd">
<svg version="1.0" xmlns="http://www.w3.org/2000/svg"
 width="700.000000pt" height="700.000000pt" viewBox="0 0 700.000000 700.000000"
 preserveAspectRatio="xMidYMid meet">
<metadata>
Created by potrace 1.14, written by Peter Selinger 2001-2017
</metadata>
<g transform="translate(0.000000,700.000000) scale(0.100000,-0.100000)"
fill="#000000" stroke="none">
<path d="M3438 5738 c-148 -14 -278 -73 -388 -175 -191 -177 -260 -431 -185
-686 20 -68 79 -175 125 -227 22 -25 40 -51 40 -59 0 -34 -66 -205 -111 -286
-130 -236 -349 -419 -605 -506 -379 -129 -810 -35 -1094 238 l-71 68 31 35
c48 54 98 150 124 236 45 149 29 340 -41 477 -53 105 -108 171 -204 244 -58
44 -166 97 -224 109 -114 26 -243 26 -335 1 -285 -79 -486 -325 -495 -607 -6
-165 26 -282 113 -413 77 -116 206 -213 343 -257 36 -12 66 -27 66 -33 1 -21
14 -132 18 -152 3 -11 7 -38 10 -60 24 -171 87 -503 106 -552 5 -13 7 -23 4
-23 -2 0 1 -15 6 -32 6 -18 12 -43 15 -55 15 -73 125 -423 154 -488 4 -11 30
-69 56 -130 27 -60 74 -157 106 -215 l59 -105 1 -332 1 -333 31 -52 c23 -38
44 -59 80 -77 l49 -25 2281 -1 2281 0 45 25 c24 14 58 45 75 68 l30 44 5 346
5 347 37 63 c149 250 291 650 384 1078 41 190 103 567 108 658 1 12 17 20 103
51 369 135 532 590 336 943 -89 161 -281 300 -457 330 -66 11 -216 7 -276 -7
-219 -54 -402 -222 -477 -437 -23 -68 -27 -95 -27 -199 -1 -66 2 -133 5 -150
20 -93 74 -205 136 -281 l34 -42 -68 -62 c-222 -204 -493 -305 -789 -295 -477
18 -894 352 -1014 814 -11 42 -10 45 18 75 52 54 108 151 136 236 81 245 5
528 -187 702 -135 121 -328 185 -509 166z"/>
</g>
</svg>
