<svg width="150" height="46" fill="none" xmlns="http://www.w3.org/2000/svg"><g clip-path="url(#clip0)"><path d="M144.663 44.737H5.254A4.766 4.766 0 01.5 39.978V6.044a4.76 4.76 0 014.754-4.751h139.409c2.63 0 4.837 2.142 4.837 4.751v33.934c0 2.61-2.208 4.76-4.837 4.76z" stroke="#fff"/><path d="M33.476 22.776c-.032-3.581 2.932-5.323 3.068-5.405-1.68-2.447-4.282-2.782-5.196-2.808-2.186-.23-4.306 1.307-5.419 1.307-1.135 0-2.85-1.285-4.698-1.247-2.378.036-4.602 1.413-5.822 3.55-2.518 4.36-.64 10.765 1.772 14.288 1.207 1.726 2.617 3.653 4.462 3.585 1.806-.075 2.48-1.151 4.66-1.151 2.158 0 2.792 1.15 4.674 1.107 1.938-.03 3.158-1.733 4.322-3.474 1.395-1.978 1.955-3.925 1.977-4.025-.046-.016-3.764-1.435-3.8-5.727zM29.92 12.245c.971-1.215 1.636-2.867 1.451-4.544-1.405.062-3.163.972-4.175 2.16-.896 1.047-1.696 2.762-1.49 4.376 1.58.117 3.2-.797 4.214-1.992zm29.685 23.551h-2.523L55.7 31.453h-4.805l-1.316 4.343h-2.457l4.76-14.786h2.94l4.783 14.786zm-4.322-6.165l-1.25-3.861c-.132-.395-.38-1.324-.745-2.786h-.045c-.145.63-.38 1.558-.702 2.786l-1.228 3.86h3.97zm16.563.704c0 1.813-.49 3.247-1.47 4.299-.877.937-1.967 1.404-3.269 1.404-1.404 0-2.413-.504-3.027-1.513h-.045v5.617h-2.369V28.645c0-1.14-.03-2.31-.087-3.51h2.083l.132 1.69h.045c.79-1.273 1.989-1.909 3.597-1.909 1.258 0 2.308.497 3.148 1.491.842.996 1.262 2.305 1.262 3.928zm-2.413.087c0-1.038-.233-1.894-.702-2.567-.512-.702-1.2-1.053-2.062-1.053-.585 0-1.116.195-1.59.58a2.695 2.695 0 00-.933 1.526 3.13 3.13 0 00-.11.723v1.777c0 .776.238 1.43.714 1.965.475.534 1.093.8 1.853.8.892 0 1.587-.344 2.083-1.03.498-.688.747-1.595.747-2.721zm14.677-.087c0 1.813-.49 3.247-1.471 4.299-.877.937-1.967 1.404-3.268 1.404-1.404 0-2.413-.504-3.027-1.513H76.3v5.617h-2.37V28.645c0-1.14-.03-2.31-.088-3.51h2.084l.132 1.69h.044c.79-1.273 1.988-1.909 3.598-1.909 1.257 0 2.307.497 3.149 1.491.839.996 1.26 2.305 1.26 3.928zm-2.413.087c0-1.038-.235-1.894-.704-2.567-.512-.702-1.197-1.053-2.06-1.053a2.47 2.47 0 00-1.592.58 2.694 2.694 0 00-.931 1.526c-.072.294-.11.534-.11.723v1.777c0 .776.238 1.43.711 1.965.476.533 1.093.8 1.856.8.892 0 1.586-.344 2.083-1.03.498-.688.747-1.595.747-2.721zM97.82 31.65c0 1.258-.436 2.282-1.313 3.072-.963.863-2.304 1.294-4.027 1.294-1.591 0-2.867-.306-3.833-.92l.55-1.975a6.494 6.494 0 003.424.944c.892 0 1.587-.202 2.085-.604.497-.403.745-.943.745-1.616 0-.6-.205-1.105-.615-1.515-.407-.41-1.088-.792-2.04-1.144-2.589-.965-3.882-2.38-3.882-4.24 0-1.215.454-2.212 1.361-2.988.905-.776 2.111-1.164 3.62-1.164 1.346 0 2.464.234 3.356.702l-.592 1.931c-.834-.453-1.776-.68-2.83-.68-.834 0-1.485.206-1.951.615a1.756 1.756 0 00-.593 1.339c0 .584.226 1.067.68 1.447.394.352 1.11.732 2.15 1.142 1.273.512 2.207 1.11 2.808 1.797.599.685.898 1.541.898 2.564zm7.833-4.737h-2.611v5.177c0 1.316.46 1.974 1.382 1.974.423 0 .775-.037 1.052-.11l.066 1.799c-.467.174-1.081.262-1.842.262-.936 0-1.667-.285-2.195-.855-.525-.571-.79-1.53-.79-2.875v-5.374H99.16v-1.778h1.555v-1.952l2.327-.703v2.655h2.611v1.78zm11.781 3.465c0 1.639-.469 2.984-1.404 4.037-.981 1.083-2.284 1.623-3.907 1.623-1.564 0-2.81-.519-3.739-1.557-.929-1.037-1.393-2.347-1.393-3.926 0-1.652.478-3.006 1.436-4.058.957-1.053 2.248-1.58 3.872-1.58 1.564 0 2.823.519 3.773 1.558.909 1.008 1.362 2.309 1.362 3.903zm-2.458.077c0-.984-.21-1.827-.635-2.53-.497-.851-1.207-1.276-2.127-1.276-.952 0-1.675.426-2.172 1.276-.426.704-.636 1.56-.636 2.574 0 .984.21 1.827.636 2.53.512.85 1.228 1.275 2.151 1.275.904 0 1.614-.434 2.127-1.298.436-.717.656-1.569.656-2.551zm10.158-3.237a4.11 4.11 0 00-.747-.065c-.833 0-1.477.314-1.931.944-.394.556-.592 1.258-.592 2.106v5.594h-2.368l.023-7.304c0-1.23-.03-2.348-.089-3.357h2.063l.087 2.04h.065c.25-.701.645-1.265 1.185-1.689a2.86 2.86 0 011.712-.571c.219 0 .417.016.592.043v2.26zm10.594 2.744c0 .425-.027.782-.086 1.075h-7.107c.028 1.053.371 1.858 1.031 2.414.599.497 1.374.745 2.325.745 1.052 0 2.012-.167 2.875-.504l.371 1.645c-1.009.44-2.2.658-3.574.658-1.653 0-2.951-.486-3.896-1.459-.942-.972-1.414-2.277-1.414-3.915 0-1.608.439-2.947 1.318-4.014.92-1.14 2.163-1.71 3.727-1.71 1.537 0 2.7.57 3.49 1.71.626.905.94 2.025.94 3.355zm-2.258-.614c.015-.703-.139-1.31-.46-1.822-.41-.658-1.04-.987-1.888-.987-.775 0-1.405.32-1.886.965-.394.512-.629 1.127-.701 1.842h4.935v.002zM54.5 11.914c0 1.308-.392 2.292-1.176 2.953-.725.61-1.756.916-3.092.916-.662 0-1.229-.03-1.703-.087V8.551a12.57 12.57 0 012.005-.152c1.273 0 2.232.277 2.878.83.725.626 1.088 1.52 1.088 2.685zm-1.228.032c0-.848-.224-1.498-.673-1.951-.45-.452-1.105-.679-1.968-.679-.367 0-.679.025-.938.076v5.432c.144.022.406.032.787.032.891 0 1.579-.248 2.063-.743.485-.496.73-1.218.73-2.167zm7.738 1.11c0 .806-.23 1.466-.69 1.984-.482.532-1.121.797-1.919.797-.769 0-1.381-.254-1.838-.765-.455-.51-.683-1.153-.683-1.93 0-.81.234-1.476.705-1.992.471-.517 1.105-.776 1.903-.776.769 0 1.386.255 1.854.764.444.496.668 1.136.668 1.918zm-1.208.038c0-.483-.104-.898-.312-1.243-.245-.418-.592-.627-1.045-.627-.467 0-.823.209-1.067.627-.21.345-.313.766-.313 1.264 0 .483.105.898.313 1.243.252.418.603.627 1.056.627.445 0 .794-.212 1.045-.638.215-.352.323-.77.323-1.253zm9.937-2.614l-1.64 5.238h-1.066l-.679-2.274a17.033 17.033 0 01-.42-1.692h-.022a12.388 12.388 0 01-.421 1.692l-.721 2.274h-1.08l-1.54-5.238h1.197l.592 2.49c.143.59.26 1.15.355 1.682h.022c.086-.438.23-.996.432-1.67l.743-2.5h.949l.712 2.446a20.2 20.2 0 01.42 1.725h.032c.08-.54.198-1.114.356-1.725l.636-2.446h1.143v-.002zm6.037 5.238H74.61v-3c0-.925-.35-1.387-1.055-1.387a1.05 1.05 0 00-.841.381 1.352 1.352 0 00-.324.898v3.107h-1.164v-3.74c0-.46-.015-.96-.042-1.5h1.023l.054.82h.033a1.68 1.68 0 01.603-.632 1.968 1.968 0 011.056-.295c.488 0 .895.158 1.218.475.403.387.604.966.604 1.735v3.138zm3.211 0h-1.164v-7.64h1.164v7.64zm6.855-2.662c0 .806-.23 1.466-.69 1.984-.482.532-1.122.797-1.919.797-.77 0-1.382-.254-1.838-.765-.455-.51-.683-1.153-.683-1.93 0-.81.234-1.476.706-1.992.47-.517 1.104-.776 1.9-.776.77 0 1.387.255 1.856.764.445.496.668 1.136.668 1.918zm-1.209.038c0-.483-.104-.898-.312-1.243-.243-.418-.592-.627-1.043-.627-.47 0-.825.209-1.068.627-.21.345-.313.766-.313 1.264 0 .483.105.898.313 1.243.252.418.603.627 1.056.627.445 0 .793-.212 1.044-.638.216-.352.323-.77.323-1.253zm6.845 2.625h-1.046l-.087-.604h-.032c-.358.481-.868.722-1.53.722-.494 0-.894-.159-1.195-.474a1.488 1.488 0 01-.41-1.067c0-.64.266-1.127.803-1.465.536-.338 1.289-.504 2.259-.496v-.098c0-.69-.362-1.034-1.088-1.034-.517 0-.972.13-1.365.388l-.237-.765c.487-.3 1.088-.452 1.797-.452 1.369 0 2.055.722 2.055 2.167v1.929c0 .523.026.94.076 1.248zm-1.21-1.8v-.808c-1.284-.023-1.926.33-1.926 1.055 0 .274.073.478.224.615.15.136.34.204.568.204.256 0 .495-.081.713-.242a.992.992 0 00.422-.825zm7.826 1.799h-1.033l-.055-.84h-.032c-.33.64-.892.96-1.682.96-.631 0-1.157-.249-1.573-.744-.417-.496-.625-1.14-.625-1.93 0-.847.226-1.534.68-2.058.438-.489.976-.733 1.616-.733.703 0 1.195.236 1.475.71h.023V8.078h1.165v6.23c0 .51.013.98.041 1.411zm-1.206-2.209v-.873a1.326 1.326 0 00-.453-1.072 1.144 1.144 0 00-.78-.286c-.434 0-.774.172-1.024.518-.248.346-.373.787-.373 1.326 0 .517.118.937.357 1.26a1.2 1.2 0 001.018.517c.382 0 .688-.143.92-.43.225-.266.335-.586.335-.96zm11.165-.453c0 .806-.23 1.466-.69 1.984-.482.532-1.12.797-1.919.797-.767 0-1.38-.254-1.837-.765-.456-.51-.684-1.153-.684-1.93 0-.81.235-1.476.706-1.992.471-.517 1.104-.776 1.903-.776.768 0 1.387.255 1.854.764.444.496.667 1.136.667 1.918zm-1.206.038c0-.483-.105-.898-.313-1.243-.245-.418-.592-.627-1.045-.627-.467 0-.822.209-1.068.627-.209.345-.312.766-.312 1.264 0 .483.104.898.312 1.243.252.418.603.627 1.057.627.444 0 .794-.212 1.045-.638.215-.352.324-.77.324-1.253zm7.468 2.624h-1.164v-3c0-.925-.351-1.387-1.056-1.387-.346 0-.625.127-.84.381a1.345 1.345 0 00-.324.898v3.107h-1.165v-3.74c0-.46-.014-.96-.041-1.5h1.022l.054.82h.032a1.69 1.69 0 01.604-.632 1.97 1.97 0 011.056-.295c.488 0 .895.158 1.218.475.404.387.604.966.604 1.735v3.138zm7.836-4.366h-1.282v2.545c0 .647.227.97.679.97.208 0 .382-.018.518-.055l.03.884c-.23.087-.532.13-.904.13-.46 0-.818-.14-1.077-.42-.26-.28-.389-.751-.389-1.412v-2.642h-.765v-.872h.765v-.96l1.142-.344v1.303h1.282v.873h.001zm6.165 4.366h-1.166v-2.977c0-.94-.351-1.41-1.054-1.41-.541 0-.909.273-1.112.817a1.48 1.48 0 00-.054.42v3.15h-1.163v-7.64h1.163v3.156h.022c.367-.575.892-.861 1.574-.861.482 0 .881.158 1.197.474.395.395.593.981.593 1.757v3.114zm6.358-2.866c0 .209-.015.384-.043.528h-3.492c.015.518.182.912.505 1.185.296.245.677.367 1.144.367.516 0 .987-.082 1.412-.248l.182.81c-.497.215-1.081.322-1.758.322-.811 0-1.45-.238-1.912-.716-.464-.478-.694-1.12-.694-1.923 0-.79.214-1.448.646-1.973.451-.56 1.061-.84 1.831-.84.754 0 1.326.28 1.713.84.312.445.466.995.466 1.648zm-1.111-.301a1.573 1.573 0 00-.225-.895c-.203-.323-.51-.485-.927-.485-.38 0-.69.158-.927.474a1.758 1.758 0 00-.345.906h2.424z" fill="#fff"/></g><defs><clipPath id="clip0"><path fill="#fff" transform="translate(0 .793)" d="M0 0h150v44.444H0z"/></clipPath></defs></svg>