<svg width="150" height="45" fill="none" xmlns="http://www.w3.org/2000/svg"><g clip-path="url(#clip0)"><path d="M144.444.889a4.666 4.666 0 014.667 4.667v33.333a4.666 4.666 0 01-4.667 4.667H5.556a4.666 4.666 0 01-4.667-4.667V5.556A4.666 4.666 0 015.556.889h138.888zm0-.889H5.556C2.5 0 0 2.5 0 5.556v33.333c0 3.055 2.5 5.555 5.556 5.555h138.888c3.056 0 5.556-2.5 5.556-5.555V5.556C150 2.5 147.5 0 144.444 0z" fill="#fff"/><path d="M52.689 11.378c0 .934-.278 1.678-.834 2.223-.622.655-1.444.988-2.444.988-.967 0-1.778-.333-2.456-1-.677-.666-1.01-1.5-1.01-2.477 0-.99.333-1.812 1.01-2.478.678-.667 1.49-1 2.456-1 .478 0 .933.089 1.367.278a2.82 2.82 0 011.044.744l-.589.589c-.444-.522-1.044-.789-1.822-.789-.7 0-1.311.244-1.822.744-.511.49-.767 1.134-.767 1.923 0 .789.256 1.433.767 1.922a2.56 2.56 0 001.822.744c.745 0 1.367-.244 1.867-.744.322-.322.51-.778.555-1.356h-2.422v-.8h3.233c.023.167.045.334.045.49zM57.811 8.6h-3.033v2.112h2.733v.8h-2.733v2.11h3.033v.823h-3.889V7.778h3.89v.823zm3.611 5.845h-.856V8.601H58.7v-.823h4.578v.823H61.41v5.844h.01zm5.178 0V7.778h.856v6.667H66.6zm4.655 0H70.4V8.601h-1.867v-.823h4.578v.823h-1.867v5.844h.011zm10.534-.867c-.656.678-1.467 1.011-2.444 1.011-.978 0-1.79-.333-2.445-1.01-.655-.679-.978-1.5-.978-2.467 0-.967.323-1.8.978-2.467.656-.678 1.467-1.011 2.445-1.011.966 0 1.777.333 2.444 1.01.656.679.989 1.5.989 2.468-.011.977-.333 1.8-.989 2.466zm-4.255-.555c.488.5 1.1.744 1.81.744.712 0 1.323-.244 1.812-.744.489-.5.744-1.134.744-1.911 0-.778-.244-1.412-.744-1.912-.49-.5-1.1-.744-1.811-.744-.712 0-1.323.244-1.811.744-.49.5-.745 1.134-.745 1.912 0 .777.256 1.41.745 1.91zm6.444 1.422V7.778h1.044l3.244 5.19h.034l-.034-1.29v-3.9h.856v6.667h-.889l-3.389-5.433h-.033l.033 1.288v4.145h-.866z" fill="#fff" stroke="#fff" stroke-width=".2" stroke-miterlimit="10"/><path d="M75.711 24.167c-2.61 0-4.744 1.988-4.744 4.722 0 2.722 2.133 4.722 4.744 4.722 2.611 0 4.745-2 4.745-4.722 0-2.734-2.134-4.722-4.745-4.722zm0 7.588c-1.433 0-2.666-1.177-2.666-2.866 0-1.7 1.233-2.867 2.666-2.867 1.433 0 2.667 1.167 2.667 2.867 0 1.689-1.245 2.867-2.667 2.867zm-10.355-7.588c-2.611 0-4.745 1.988-4.745 4.722 0 2.722 2.134 4.722 4.745 4.722 2.61 0 4.744-2 4.744-4.722 0-2.734-2.133-4.722-4.744-4.722zm0 7.588c-1.434 0-2.667-1.177-2.667-2.866 0-1.7 1.233-2.867 2.667-2.867 1.433 0 2.666 1.167 2.666 2.867 0 1.689-1.233 2.867-2.666 2.867zm-12.311-6.133v2h4.8c-.145 1.122-.523 1.956-1.09 2.522-.7.7-1.788 1.467-3.7 1.467-2.955 0-5.266-2.378-5.266-5.333 0-2.956 2.311-5.334 5.267-5.334 1.589 0 2.755.623 3.61 1.434l1.412-1.411c-1.2-1.145-2.789-2.023-5.034-2.023-4.044 0-7.444 3.29-7.444 7.345 0 4.044 3.4 7.344 7.444 7.344 2.19 0 3.834-.71 5.123-2.055 1.322-1.323 1.733-3.19 1.733-4.69 0-.466-.033-.9-.111-1.255h-6.745v-.01zm50.344 1.556c-.389-1.056-1.589-3.011-4.044-3.011-2.434 0-4.456 1.91-4.456 4.722 0 2.644 2 4.722 4.689 4.722 2.167 0 3.422-1.322 3.933-2.089l-1.611-1.078c-.533.79-1.267 1.312-2.322 1.312-1.056 0-1.811-.49-2.289-1.434l6.322-2.611-.222-.533zm-6.444 1.577C96.889 26.933 98.355 26 99.41 26c.822 0 1.522.411 1.756 1l-4.222 1.755zm-5.134 4.578h2.078V19.444h-2.078v13.89zm-3.4-8.11h-.078c-.466-.556-1.355-1.056-2.489-1.056-2.366 0-4.533 2.077-4.533 4.744 0 2.644 2.167 4.711 4.533 4.711 1.123 0 2.023-.5 2.49-1.078h.066v.678c0 1.811-.967 2.778-2.522 2.778-1.267 0-2.056-.911-2.378-1.678l-1.811.756c.522 1.255 1.9 2.789 4.189 2.789 2.433 0 4.489-1.434 4.489-4.923v-8.489H88.4v.767h.011zm-2.389 6.533c-1.433 0-2.633-1.2-2.633-2.845 0-1.667 1.2-2.878 2.633-2.878 1.411 0 2.522 1.222 2.522 2.878.012 1.644-1.1 2.845-2.522 2.845zm27.1-12.312h-4.966v13.89h2.077v-5.267h2.9c2.3 0 4.556-1.667 4.556-4.312 0-2.644-2.278-4.31-4.567-4.31zm.045 6.69h-2.945v-4.767h2.945c1.555 0 2.433 1.288 2.433 2.377 0 1.09-.878 2.39-2.433 2.39zm12.822-1.99c-1.5 0-3.056.667-3.7 2.123l1.844.766c.389-.766 1.123-1.022 1.889-1.022 1.067 0 2.167.644 2.178 1.789v.144a4.657 4.657 0 00-2.167-.533c-1.988 0-4 1.089-4 3.122 0 1.856 1.623 3.056 3.445 3.056 1.389 0 2.167-.622 2.644-1.356h.067v1.078h2v-5.322c.011-2.467-1.833-3.845-4.2-3.845zm-.256 7.612c-.677 0-1.622-.345-1.622-1.178 0-1.067 1.178-1.478 2.2-1.478.911 0 1.345.2 1.889.467-.155 1.277-1.267 2.189-2.467 2.189zm11.756-7.312l-2.378 6.023h-.066l-2.467-6.023h-2.233l3.7 8.423-2.112 4.677h2.167l5.7-13.1h-2.311zm-18.667 8.89h2.078v-13.89h-2.078v13.89z" fill="#fff"/><path d="M11.6 8.378c-.322.344-.511.877-.511 1.555v24.578c0 .689.189 1.222.511 1.555l.078.078L25.444 22.39v-.334L11.678 8.3l-.078.078zm18.433 18.6l-4.589-4.589v-.333l4.59-4.59.1.056 5.432 3.09c1.556.877 1.556 2.322 0 3.21l-5.433 3.09-.1.066z" stroke="#fff" stroke-width=".5"/><path d="M30.133 26.912l-4.688-4.69L11.6 36.068c.511.544 1.356.611 2.311.067l16.222-9.223zm0-9.379L13.9 8.311c-.956-.544-1.8-.478-2.311.067l13.855 13.844 4.69-4.689z" stroke="#fff" stroke-width=".5"/><path opacity=".2" d="M30.033 26.811L13.9 35.978c-.9.511-1.711.478-2.222.011l-.078.078.078.078c.522.466 1.322.5 2.222-.011l16.233-9.223-.1-.1z" fill="#171717"/><path opacity=".12" d="M11.6 35.912c-.322-.344-.511-.878-.511-1.556v.167c0 .689.189 1.222.511 1.556l.078-.078-.078-.089zm23.966-12.245l-5.544 3.144.1.1 5.433-3.088c.778-.445 1.167-1.023 1.167-1.6-.056.522-.444 1.044-1.156 1.444z" fill="#171717"/></g><defs><clipPath id="clip0"><path fill="#fff" d="M0 0h150v44.444H0z"/></clipPath></defs></svg>