<svg width="14" height="15" xmlns="http://www.w3.org/2000/svg"><path class="fill-good" d="M7.013 4.035c-1.95 0-3.504 1.567-3.504 3.465 0 1.929 1.554 3.466 3.504 3.466 1.92 0 3.504-1.537 3.504-3.466 0-1.898-1.585-3.465-3.504-3.465zm0 5.725c-1.25 0-2.286-.994-2.286-2.26 0-1.235 1.006-2.23 2.286-2.23 1.249 0 2.254.995 2.254 2.23a2.244 2.244 0 01-2.254 2.26zm4.448-5.846a.815.815 0 00-.823-.813.815.815 0 00-.822.813c0 .452.365.814.822.814a.815.815 0 00.823-.814zm2.316.814c-.061-1.085-.305-2.05-1.097-2.833C11.888 1.112 10.913.871 9.816.81 8.688.75 5.306.75 4.179.81c-1.097.06-2.041.302-2.864 1.085C.523 2.68.279 3.643.218 4.728c-.06 1.115-.06 4.46 0 5.575.061 1.084.305 2.018 1.097 2.832.823.784 1.767 1.025 2.864 1.085 1.127.06 4.51.06 5.637 0 1.097-.06 2.072-.301 2.864-1.085.792-.813 1.036-1.748 1.097-2.832.06-1.115.06-4.46 0-5.575zm-1.463 6.75c-.213.602-.7 1.054-1.28 1.296-.914.361-3.046.27-4.021.27-1.006 0-3.139.091-4.022-.27a2.298 2.298 0 01-1.31-1.296c-.366-.874-.275-2.984-.275-3.978 0-.964-.091-3.074.275-3.978.243-.572.7-1.024 1.31-1.265.883-.362 3.016-.271 4.022-.271.975 0 3.107-.09 4.021.27.58.212 1.036.694 1.28 1.266.366.904.274 3.014.274 3.978 0 .994.092 3.104-.274 3.978z" fill="#333"/></svg>