<svg width="160" height="39" fill="none" xmlns="http://www.w3.org/2000/svg"><path d="M11.886 37.474a19.453 19.453 0 01-10.062-9.722 19.579 19.579 0 01-.964-13.99A19.486 19.486 0 019.49 2.74 19.343 19.343 0 0123.255.385c4.72.957 8.918 3.64 11.778 7.53a19.563 19.563 0 01-2.588 26.041A19.367 19.367 0 0119.417 39a19.212 19.212 0 01-7.531-1.526zm-8.87-14.318v.103l-.035.07v.245a2.48 2.48 0 01-.019.285 2.18 2.18 0 00-.017.237v.174c0 .035.027.062.057.091a.306.306 0 01.084.118.444.444 0 01-.012.072.697.697 0 00-.022.138.05.05 0 01.045.025.17.17 0 01-.01.15h.034v.104c.037.022.074.048.11.073.08.069.176.115.28.133a.154.154 0 00.095-.033l.104-.104.07.034.033-.243a.44.44 0 00.218.091.084.084 0 00.067-.027.224.224 0 00.028-.17.039.039 0 00.02.006c.03 0 .055-.034.08-.069a.235.235 0 01.073-.076l.416-.105.241-.034h.07c.134-.028.27-.047.405-.057.344 0 .677-.115.948-.327h.59c.264.103.618.228.962.349.31.097.615.213.912.348l.069-.105a1.318 1.318 0 00-.613-.278 1.615 1.615 0 01-.461-.174l.277.104c-.034-.035-.068-.078-.102-.119a1.483 1.483 0 00-.107-.125h.684c-.24.001-.479-.01-.717-.035L7.8 23.96l-.208-.034-.17-.061a1.278 1.278 0 01-.59-.323l-.07-.103c.088.044.172.093.254.147.078.055.163.1.253.133.105.054.213.1.324.138l-.054-.072h.019l-.034-.035.104.035h.037a1.41 1.41 0 01-.19-.232c-.13-.178-.277-.38-.388-.38-.05 0-.085.04-.117.124.011.01.015.018.015.025-.001.007-.009.014-.02.021a.317.317 0 00-.029.024 23.594 23.594 0 01-.648-.411l-.027-.018.017.011v.035l-.035.034-.069.07a.088.088 0 01-.065.017c-.02 0-.039 0-.039.018v.07a.139.139 0 01-.056.01h-.06a.085.085 0 00-.091.06c-.008 0-.03-.033-.068-.084l-.045-.066c-.054-.078-.105-.15-.125-.15-.005 0-.009.006-.009.018a.466.466 0 01.011.143c-.006 0-.012-.006-.02-.016a.135.135 0 00-.095-.056l-.034.103a.108.108 0 00-.054-.023c-.02 0-.03.017-.043.04a.24.24 0 01-.076.086.11.11 0 01-.085.037.3.3 0 01-.035 0h-.037c-.036 0-.074.013-.123.11l-.208.175a.311.311 0 00-.125.035.296.296 0 01-.11.033c-.053 0-.1-.034-.146-.104a.21.21 0 01-.186.104.566.566 0 01-.13-.027.58.58 0 00-.124-.02.15.15 0 00-.043.006.227.227 0 01-.084.018c-.089 0-.148-.065-.223-.149l-.073-.078-.107-.031a.015.015 0 00-.005-.004.014.014 0 00-.007-.001c-.013 0-.027.02-.04.04-.014.02-.027.041-.04.041a.019.019 0 01-.012-.005v-.071l-.033-.035v-.21l-.174-.104-.14.138zm18.272 1.915h.069l-.035.035a.39.39 0 00.085-.035h.017-.013c.017-.012.026-.024.026-.036a.035.035 0 00-.013-.027.8.8 0 01.412-.141c.133-.014.264-.049.386-.104l.034.07.069-.034c.035.053.103.053.169.053.066 0 .125 0 .143.051a.42.42 0 01-.233.099.065.065 0 01-.033-.007.024.024 0 01-.012-.022c-.034.024-.051.041-.048.053.004.012.025.018.064.018a2.49 2.49 0 00.436-.071c-.055-.01-.084-.02-.084-.035 0-.014.071-.056.13-.08.023-.01.043-.017.056-.024l-.034.07a.395.395 0 00.261-.113.263.263 0 01.16-.08.236.236 0 01.132.053l.035-.104.242.035c-.017-.105.063-.132.14-.156.076-.025.155-.053.139-.157a.358.358 0 01.11-.03c.013 0 .02.003.023.01.004.007 0 .02-.012.041-.011.02-.01.016-.015.024-.004.007-.018.024-.016.027h.012a.942.942 0 00.409-.17.665.665 0 01.253-.116.06.06 0 01.034.01l-.034.034.07.035-.035-.035.008-.005a1.07 1.07 0 01.337-.17h.417c.252.203.552.336.87.389.085.021.165.042.239.064l-.035.035h.242a.13.13 0 00-.034.104c.247.071.502.114.76.127a.564.564 0 00.333-.085c-.004.014.01.032.026.05.015.02.037.045.03.064-.008.02-.04.034-.102.043.11-.011.23-.012.31-.012h.334c.247.005.495-.015.738-.061l.07-.034.038-.008a.914.914 0 00.447-.17.3.3 0 00.208.105.024.024 0 01-.002-.01c0-.004 0-.008.002-.011.019-.032.107-.048.22-.068.176-.032.394-.073.472-.19.017.018 0 .035-.012.048-.013.014-.013.013-.012.017 0 .005.01.005.024.005.189-.08.371-.176.545-.285.138-.085.282-.165.422-.238l2.115-.034c.186.098.377.185.573.261.195.076.387.164.573.262a.02.02 0 00.014-.006.021.021 0 00.007-.013.085.085 0 00-.057-.085c.082.031.17.045.258.042h.226c.12-.006.24.017.35.067l-.07.035c.08.034.166.053.253.055a.578.578 0 00.274-.084c.134-.074.28-.122.431-.144a.702.702 0 00-.119.02c-.06.013-.122.022-.185.025-.057 0-.09-.015-.1-.046a.11.11 0 01.07-.035.702.702 0 00.12-.018.62.62 0 01.121-.018.126.126 0 01.105.035V24.2a4.22 4.22 0 00.502-.128l.157-.046.046-.011a.803.803 0 00.338-.128l.276-.174a.553.553 0 01-.084.035.615.615 0 00-.084.034l-2.774.035a3.089 3.089 0 01-.261-.07 2.871 2.871 0 00-.253-.069h.124c.024 0 .04 0 .045-.008a.52.52 0 00-.16-.03.336.336 0 00-.062.007l-.163-.078a3.649 3.649 0 01-.344-.177h.07c-.066-.022-.13-.048-.132-.074 0-.011.008-.02.027-.03a.39.39 0 00-.117-.027.202.202 0 00-.09.026.192.192 0 00-.085-.038.497.497 0 01-.084-.03s-.004 0-.012-.005c-.035-.009-.131-.033-.148-.077a.046.046 0 01.007-.043.1.1 0 01-.072.024.643.643 0 01-.158-.033.768.768 0 00-.207-.04.045.045 0 010-.044c.019-.033.097-.037.169-.04.053 0 .1-.005.105-.021.004-.017-.006-.02-.027-.035a.63.63 0 00-.077-.005c-.255.03-.5.115-.718.248.375-.713.806-1.396 1.287-2.041.299-.407.574-.83.826-1.266a.607.607 0 00-.04-.204.148.148 0 00-.144-.107c-.313.07-.697.776-.797 1.046a5.604 5.604 0 00-1.383 2.684h-.006a.565.565 0 01-.168.067c0-.041.035-.07.064-.093.029-.023.039-.032.039-.046-.038.036-.078.07-.12.103a1.457 1.457 0 00-.123.107 5.373 5.373 0 00-.45.209l.276-.315a.154.154 0 01-.102.034l.168-.207c-.173.034-.173.139-.173.207h-.069l.07-.139c-.192.064-.2.152-.21.255a.34.34 0 01-.068.199l-.243-.035c-.193.06-.38.141-.554.243h-.416a.66.66 0 01.381-.243.043.043 0 01.022.034c0 .043-.08.097-.12.125a.118.118 0 00-.028.02.063.063 0 00.022-.004c.026-.007.058-.013.094-.02.155-.033.37-.076.422-.189l-.382.174c-.015-.04-.018-.067-.007-.085.01-.018.044-.027.078-.032.035-.005.085-.013.103-.057a.157.157 0 00-.072-.017.502.502 0 00-.19.057.582.582 0 01-.223.064l.035-.034c-.136.05-.198.078-.254.103l-.084.037c.011-.007.067-.039.067-.07l-.173.034c-.016.015-.021.026-.019.034.003.008.014.01.032.01a.486.486 0 00.057-.005h.033a4.38 4.38 0 01-.17.07l-1.176.02.026-.025h-.009a.175.175 0 00-.1.026l-.338.007a.235.235 0 00-.023-.02c-.023-.017-.036-.027-.018-.071h-.065c-.075 0-.15.006-.223.017v-.006c0-.007-.005-.017-.017-.032l.032.006.104-.035h-.17l-.044-.04a.384.384 0 01-.033-.03c-.049 0-.072.005-.077.016-.005.011.011.028.03.048l.006.006h-.029l.035.006c.019.016.031.04.035.064a.192.192 0 00-.057-.008.664.664 0 00-.085.007.821.821 0 01-.084.006c-.07 0-.108-.023-.12-.075-.02-.018-.027-.033-.023-.042.005-.01.053-.021.105-.024a.271.271 0 00.16-.038h-.52l-.03-.005.03-.029h-.01a.295.295 0 01-.163-.035c0-.027.016-.041.045-.041a.344.344 0 01.128.04.452.452 0 00-.292-.095c-.14-.013-.263-.025-.263-.184a.38.38 0 01-.139-.035l.035-.034-.104-.034c-.49-.183-.55-.238-.554-.263 0-.012.006-.019.016-.026.01-.006.014-.01.013-.018 0-.006-.006-.011-.018-.02a.435.435 0 00-.045-.021.276.276 0 01-.084.014c-.034 0-.06-.01-.065-.025-.006-.015 0-.016.006-.025l-.241.21a.524.524 0 01-.182.222c-.118.105-.24.213-.2.339a.245.245 0 01-.075.014.074.074 0 01-.05-.015.045.045 0 01-.014-.035.177.177 0 01-.056.012c-.04 0-.05-.024-.059-.05-.009-.025-.018-.054-.062-.054a.446.446 0 00-.169.058c0-.022.013-.03.032-.042a.21.21 0 00.038-.028h-.005c-.12 0-.133.048-.133.068l-.035-.07a.035.035 0 010 .037c-.027.045-.15.068-.208.068l.07-.174a.529.529 0 01-.277.139l.07-.104c-.114.05-.113.097-.113.136a.057.057 0 01-.012.047c-.019.018-.065.026-.153.026h.311c-.2.089-.215.18-.227.26a.195.195 0 01-.05.123l-.069.035h-.76a.487.487 0 00.105-.14.342.342 0 01.153-.05.142.142 0 01.118.076c.026.038.053.073.104.073a.406.406 0 00.21-.103.146.146 0 00-.126-.065.35.35 0 00-.186.065c0-.053.079-.125.148-.188l.06-.056a1.683 1.683 0 01-.552.085 1.65 1.65 0 00-.244.019h-.035a.528.528 0 01-.3.146.144.144 0 01-.046-.007c0 .019-.03.038-.07.062a.614.614 0 00-.104.078h-.59v-.035a.107.107 0 00.075.028c.165-.041.318-.123.444-.237l-.38-.035c.015.009.022.018.022.029 0 .035-.066.08-.127.11l-.034-.103a.1.1 0 01-.111.073.927.927 0 01-.235-.051l-.019-.005a1.02 1.02 0 00-.282-.058.226.226 0 00-.185.075.324.324 0 01.095.019c.027.01.056.016.084.018a.106.106 0 00.098-.072c.043.018.067.037.074.062.007.024-.015.072-.039.107a.157.157 0 00-.035.074h-.417a2.767 2.767 0 01-.383-.157 2.819 2.819 0 00-.38-.156.37.37 0 01.146.04c.03.017.063.027.098.03l.033-.034.001-.003v-.003a1.148 1.148 0 00-.642-.298.253.253 0 00-.12.027h-.21a.374.374 0 00-.053.035.168.168 0 01-.103.045.15.15 0 01-.051-.008c-.026.012-.037.02-.037.024.001.004 0 0 .01 0a.98.98 0 00.132-.021l.079-.014.084-.016c-.068.135-.093.139-.129.143-.036.004-.078.01-.177.126h.038l.034.035-.034.035a.266.266 0 01-.099.034c-.024 0-.031-.015-.04-.032v-.006a.057.057 0 00-.06-.036.221.221 0 00-.042.005c-.055.073-.097.107-.136.107a.139.139 0 01-.066-.024h-.006a.188.188 0 00-.089-.026.326.326 0 00-.187.084v-.07a.66.66 0 01-.302.061 2.59 2.59 0 01-.451-.056 3.484 3.484 0 00-.254-.04.187.187 0 00.08.02c.057.007.129.016.156.056a.075.075 0 01.008.064l-.416.035a.179.179 0 00-.065-.026c-.033-.01-.069-.02-.071-.038-.003-.017.009-.024.032-.04l.14.034-.074-.067c-.108.011-.168.034-.175.065-.007.031.038.085.092.133.017.015.034.03.049.046h-.277a.108.108 0 00.04-.066.11.11 0 00-.04-.073.804.804 0 00-.214-.021 1.083 1.083 0 00-.48.09.75.75 0 00-.485-.273c-.16-.044-.287-.08-.278-.17a.089.089 0 01-.085.058.16.16 0 01-.084-.03l.07-.034a.263.263 0 00-.132-.04.285.285 0 00-.146.048h-.006a.253.253 0 01-.124.045.147.147 0 01-.077-.023l.103-.07a.958.958 0 00-.308-.043c-.052 0-.103 0-.15.004-.049.004-.09 0-.132 0 .028-.11.056-.236.084-.357.037-.262.115-.518.23-.757.113-.37.241-.557.381-.557h.014c.237 0 .535.436.85.897.332.484.676.983.974 1.017h.035l.034-.034a.5.5 0 00.069-.206c0-.352-.466-.813-.901-1.219a7.18 7.18 0 01-.87-.864v-.005c.391-.822 1.91-1.325 2.809-1.357l-.028.238a15.986 15.986 0 00-.145 1.851c-.02.491.076.98.277 1.429.069.067.103.068.104.068a.122.122 0 00.109-.102.123.123 0 00-.003-.054V21.66a9.672 9.672 0 01.034-1.22c.033-.3.189-.417.556-.417.7.065 1.377.291 1.976.662.02.043.032.09.034.139a3.42 3.42 0 01-.32.976 3.863 3.863 0 00-.373 1.187c.003.091.04.178.103.244l.034.034h.035c.216-.053.305-.317.417-.65.032-.093.064-.19.103-.29.064-.207.119-.424.169-.621.036-.168.084-.332.143-.493.035-.174.07-.174.104-.174h.017c.16 0 .573.433.573.56v.035h.035c.22.036.363.593.451 1.01.015.066.027.133.04.199.084.424.151.781.48.811h.03a.562.562 0 00.208-.453 5.087 5.087 0 00-.968-2.236.602.602 0 01-.07-.173c.04.002.079.006.117.012.077.013.154.02.232.022h.068c.196.03.393.041.59.034a9.91 9.91 0 001.172-.095c.28-.034.547-.064.806-.08h.035l.034-.034a.682.682 0 01.486-.104h.173c.163.004.325-.007.485-.035.66-.021 1.317-.104 1.962-.248a12.714 12.714 0 011.645-.24 11.67 11.67 0 013.017-.627h.45v-.046c.092-.014.184-.022.277-.024h.243l.034-.034a.18.18 0 00.07-.141c-.07-.174-.21-.174-.346-.174l-.117.015a.974.974 0 00-.39.095h-.12a11.37 11.37 0 00-1.533.193l-.095.017a13.86 13.86 0 01-1.562.13l-.169.009c-.097.012-.193.02-.285.03-.458.045-.853.084-.997.318a.19.19 0 00-.105-.174h-.034a7.171 7.171 0 00-1.153.145 8.21 8.21 0 01-1.379.17 1.639 1.639 0 01-1.044-.286.46.46 0 00-.173-.035.505.505 0 01-.091.018c-.091.012-.195.027-.221.156a.044.044 0 00.017.034.049.049 0 01.018.035h-.013a1.38 1.38 0 01-.437-.24l-.034-.035h-.035a.36.36 0 00-.117.018 2.6 2.6 0 00.048-.509v-.058c0-.162.006-.329-.21-.36-.078 0-.117.059-.176.149-.02.028-.04.06-.066.096v.068c.022.07.035.142.039.214a.732.732 0 00.203.517l.035.035a.42.42 0 00.104.263l.035.052.035.033h-1.075l.034-.033a.127.127 0 01.018-.052.13.13 0 00.018-.053.205.205 0 00-.131-.149.139.139 0 01-.043-.025h-.009a.174.174 0 00-.199.139.268.268 0 00.138.14l.034.033a5.133 5.133 0 01-1.425-.206 2.945 2.945 0 00-1.767-.452c-.322 0-.635.018-.937.035-.29.017-.563.033-.833.033a3.086 3.086 0 00-.97-.103c-.837 0-1.671.07-2.496.21a1.676 1.676 0 01-.451-.035.152.152 0 01-.104-.035c.185-.087.387-.134.59-.14h.07v-.138a.246.246 0 00-.273-.177h-.108a5.552 5.552 0 011.033-.17l.076-.006h.034l.035-.035.035-.07c-.035-.14-.14-.14-.243-.14l.029-.014a.162.162 0 00.109-.125.188.188 0 00-.135-.157l-.038-.017h-.382c0 .013-.01.016-.023.02a.11.11 0 00-.08.085c.05.123.064.124.092.127.017 0 .032.004.047.011.094.011.186.034.274.07a6.456 6.456 0 01-.397.065c-.09.013-.18.026-.259.04-.066.027-.133.05-.202.067-.136.038-.235.066-.283.211 0 .034 0 .069.034.07h-.138a.41.41 0 01-.037-.12c-.013-.065-.022-.113-.136-.158a.454.454 0 00-.176.17.35.35 0 01-.275.18 1.576 1.576 0 01-.034-.452v-.418c.034-.07.068-.07.103-.07a.238.238 0 01.173.245v.068l.026.03a.154.154 0 00.114.075c.129-.026.142-.089.155-.15a.23.23 0 01.018-.058.394.394 0 01.069-.14 27.23 27.23 0 012.461-.104h1.59c-.006 0-.132.02-.132.136a.129.129 0 00.035.104h-2.183a.11.11 0 00-.105.104.186.186 0 00.17.122c.025.004.05.01.076.019.345.055.692.09 1.04.103.282-.082.575-.117.867-.103a15.11 15.11 0 011.7.133l.035.005c.069 0 .433 0 .796-.035.092 0 .191-.01.287-.02.097-.009.17-.016.233-.016a.36.36 0 01.139-.034.193.193 0 00.104.175l.069.069.035-.035h.172l.034-.033c0 .035.04.071.071.103l.035.035.069-.035a.127.127 0 01.104-.034h.034l.035-.035a.128.128 0 01.013-.045.227.227 0 00.022-.094c0-.14-.106-.175-.208-.21a.19.19 0 00-.174.106.258.258 0 00-.243-.106h-.013c-.03-.07-.06-.07-.09-.07a.128.128 0 01-.052-.016.115.115 0 00-.053-.018c-.97-.035-1.896-.035-2.877-.035l.034-.034a.05.05 0 01.013-.033.106.106 0 00.022-.072c0-.054-.06-.085-.112-.102h.944c.198.078.41.113.623.104a9.284 9.284 0 001.596-.174c0 .022.013.03.032.042a.219.219 0 01.037.028l.035.035h.208v-.134c.34-.074.684-.127 1.03-.158l.149-.016a.263.263 0 01.034.174 2.99 2.99 0 01-.064.481 3.527 3.527 0 00-.076.599c-.014.12.01.242.07.347l.035.035h.068c.283-.029.333-.316.344-.593h.072v-.035h.07v-.07a.186.186 0 00-.138-.17c0-.154-.013-.307-.022-.43-.007-.097-.013-.179-.013-.236h.035c.245-.077.495-.137.748-.18l.153-.03a8.67 8.67 0 00.451-.104.27.27 0 01.1-.04c.028.025.06.043.095.054l.048.02.035-.104v.105c.612-.093 1.23-.147 1.849-.164.405-.02.823-.039 1.237-.085h.07v-.07c-.024-.122-.065-.124-.124-.126a.294.294 0 01-.084-.012h-.382c-.344 0-.816.027-1.16.048-.218.012-.39.022-.468.022a4.555 4.555 0 00-.66.035c-.066.017-.134.03-.202.036a.909.909 0 00-.125.02c-.015-.027-.04-.033-.07-.04a.226.226 0 01-.053-.017v-.004a1.365 1.365 0 01-.068-.31V16.5h.07l.034-.035c.01-.019.018-.036.027-.05a.23.23 0 00.041-.124.156.156 0 00-.075-.115l-.029-.026.035-.068v-.141h-.035a.19.19 0 00.104-.174l-.013-.041a.192.192 0 00-.16-.17.045.045 0 00-.035.018.044.044 0 01-.034.018v-.418c-.01-.21.002-.42.035-.627.012-.034.025-.064.036-.093.023-.064.05-.127.08-.188a.51.51 0 00-.028.187 2.02 2.02 0 01-.018.233l-.035.035a.126.126 0 00-.035.103v.314l.14-.035c.068 0 .103-.103.103-.14v-.104h.034v-.035c.025-.114.036-.23.035-.347v-.07a.112.112 0 00-.104-.104.078.078 0 00-.073.03c.008-.016.017-.03.038-.03l.027-.014a.49.49 0 00.285-.3.262.262 0 00.035-.139.224.224 0 00-.209-.21 1.4 1.4 0 00-.451.14 1.38 1.38 0 01-.45.14c-.178-.036-.278-.077-.278-.488v-.07c-.036-.218-.073-.314-.209-.348-.205.06-.237.316-.262.522l-.015.106a.39.39 0 01-.163.245.36.36 0 00-.149.207c0 .111.042.18.173.28a24.678 24.678 0 01-.277 3.377c-.2.032-.403.05-.607.053a5.18 5.18 0 00-.641.051c-1.25.07-2.483.07-3.675.07H15.6a.683.683 0 01.243-.035h.104l.032-.01c.084-.027.11-.037.142-.13-.05-.122-.1-.124-.147-.126a.148.148 0 01-.062-.012.672.672 0 00-.278-.035h-.203a.09.09 0 01-.039.02c-.034.01-.075.022-.1.119a.3.3 0 00.025.056l-.024.049h.034v-.033a.169.169 0 00.072.052l.031.015h-1.18l.003-.005c.034-.034.065-.065.065-.099 0-.174-.141-.174-.209-.174s-.173.03-.173.14a.128.128 0 00.035.104h-.798a.181.181 0 00.07-.14v-.069l-.07-.035c-.192-.064-.277-.279-.277-.697.015-.37.057-.738.127-1.102.063-.325.101-.655.116-.986 0-.364-.12-.557-.347-.557a1.2 1.2 0 01-.415.104 1.115 1.115 0 01-.243-.034 1.075 1.075 0 00-.243-.035c-.24 0-.377.195-.591.836a.425.425 0 00-.069.278c0 .16.026.312.209.348h.034c.033.443.068 1.357.07 1.393a.989.989 0 00.257.424c.079.084.141.154.124.235a.478.478 0 01-.103.243c-.39.06-.786.084-1.181.07H9.082c-.09 0-.218-.006-.368-.014-.19-.01-.407-.02-.603-.02-.085.008-.17.01-.254.013-.276.008-.493.014-.547.23v.035l.033.035c.32.168.681.24 1.041.21.395 0 .853-.035 1.296-.069.179-.013.347-.026.506-.035a.176.176 0 00-.034.052.195.195 0 01-.034.051c-.036-.036-.07-.07-.104-.07a.614.614 0 00-.555.488.47.47 0 00.174.313l.033.035.035-.035a.567.567 0 00.151-.318c.031-.129.057-.24.169-.24h.096v-.103l.034.035.034.034h.035a.634.634 0 00.139-.017.702.702 0 01.139-.017c.138-.07.208-.105.208-.21v-.034a.919.919 0 00.14.032.553.553 0 01.138.037c.207.024.416.036.625.035h.068a.796.796 0 01-.013.1 3.91 3.91 0 00-.055.665h-.005c-.245.083-.5.13-.76.144-.037 0-.072 0-.105-.005a.823.823 0 01-.185-.023.453.453 0 00-.092-.012l-.034-.035a.26.26 0 00.208-.21.097.097 0 00-.056-.077.198.198 0 00-.085-.027.988.988 0 00-.59.348.666.666 0 00-.137.022.437.437 0 01-.072.013h-.07s-.035 0-.069.068a.068.068 0 00.02.05.07.07 0 00.05.02c.069 0 .104 0 .104.035v.035h-.104c-.036 0-.07 0-.104.104a.17.17 0 00.03.048c.004.004.004.004.004.022a.128.128 0 01-.034.104c-.133.01-.293.026-.461.044a13.6 13.6 0 01-1.377.095c-.39.028-.78-.032-1.144-.174l-.034-.034-.034.034c-.17.048-.345.072-.52.07a9.05 9.05 0 01-1.378-.163 6.414 6.414 0 00-.877-.116.291.291 0 00-.243.07.128.128 0 00-.034.105c.07.352.659.417 1.284.487.483.048.969.071 1.455.07a9 9 0 002.427.21h1.594a4.37 4.37 0 011.699.173c.02.01.034.02.05.027.036.026.079.04.123.042a.263.263 0 00.214-.143c.012-.018.019-.031.029-.031.413 0 .833-.009 1.24-.017.422-.01.853-.018 1.29-.018-.048.08-.143.21-.264.377a5.792 5.792 0 00-1.157 2.131h-.023a.156.156 0 01-.03.005l.053.026v.07c.002.02.007.04.014.058a.415.415 0 01.02.115 1.196 1.196 0 01-.106-.098.662.662 0 00-.483-.254c.016-.03.085-.034.144-.037.059-.004.095-.005.1-.022.005-.017-.009-.025-.035-.044a.53.53 0 00-.332.094.413.413 0 01-.257.08.133.133 0 00.075-.119c.01-.055.017-.105.133-.126h-.02c-.258 0-.328.037-.396.138l-.103-.034a.646.646 0 01-.392.201l-.025.006v-.068c-.045.199-.132.201-.241.202a.458.458 0 00-.21.042v-.105a.393.393 0 01-.317.19.311.311 0 01-.098-.017l.07-.103a.525.525 0 01-.246.07.388.388 0 00-.275.104.02.02 0 01-.008-.001.018.018 0 01-.007-.004c-.006-.009 0-.025 0-.043 0-.017.014-.054 0-.073a.086.086 0 00-.07-.021.41.41 0 00-.057.004.293.293 0 01-.223.097.122.122 0 01-.089-.029c0-.028.023-.079.068-.079.012 0 .025.004.036.01h.015a.05.05 0 00-.015.034l.07-.069a.336.336 0 00-.063-.006.221.221 0 00-.129.04.227.227 0 01-.13.04.335.335 0 01-.06-.004.019.019 0 01-.007-.014c0-.015.02-.03.042-.05a.254.254 0 00.07-.075l-.76.244a.085.085 0 00.03.058c.024.027.047.05.004.116h.277c.026.012.039.027.038.042 0 .045-.14.085-.232.117l-.048.015h.173v.06l.138-.034c-.068.041-.102.077-.1.107.003.03.067.062.124.084.056.022.094.035.094.059.001.024-.026.04-.084.064a1.27 1.27 0 00-.198.02.94.94 0 01-.148.015h.488a.65.65 0 01-.14.07h.01a.878.878 0 00.143-.016.987.987 0 01.156-.018l.068-.034c0 .01-.004.02-.01.028-.01.017-.021.038-.012.056.01.02.053.043.127.055a.437.437 0 01.185-.04c.106.005.21.03.308.073l.027.01a.721.721 0 00.277.064c.103-.026.151-.047.153-.066.002-.018-.033-.03-.068-.044-.036-.014-.077-.03-.077-.05 0-.02.02-.03.06-.048a.492.492 0 01.086-.016.127.127 0 01.102.039.128.128 0 00.102.038l.035-.14h.103c0 .012-.002.022-.004.033a.06.06 0 000 .031c.011 0 .024-.012.041-.028a.428.428 0 01.06-.005c.017 0 .025 0 .027.007.002.008-.02.029-.049.053-.046.036-.101.084-.078.115a.529.529 0 01.29-.174.104.104 0 01.027 0 .009.009 0 010 .009c0 .02-.057.06-.095.084a.166.166 0 00-.035.028.21.21 0 00.057-.018c.097-.071.201-.13.312-.174l1.491-.035-.069.104a.155.155 0 01.07-.014c.1.011.198.037.29.078.13.052.265.09.403.111l-.034.07h.174l-.07.034a.662.662 0 00.132.011h.148a.684.684 0 01.275.046.214.214 0 00-.052-.007.126.126 0 00-.123.127h.591c0 .01.028.027.058.044.029.017.077.043.074.063-.004.02-.024.024-.063.032l.242-.035-.034.07c.246.076.502.114.76.11.228 0 .451-.022.687-.045h.018c.224-.022.479-.048.743-.048.132 0 .263.006.393.02v.035c.122-.055.238-.122.346-.2.057-.04.116-.08.175-.113a.122.122 0 01.043-.008.3.3 0 01.09.02l.018.004a.465.465 0 00.23.018c-.018-.012-.025-.024-.024-.037 0-.035.069-.072.148-.113a1.19 1.19 0 00.154-.094l.243.21-.015-.014a1.08 1.08 0 01-.194-.23l.035-.07h.035l.034.035a.13.13 0 01-.018.052.124.124 0 00-.017.052l.034-.035a.338.338 0 00.085.127l-.013.012c.054.06.129.097.209.104.079.027.16.048.241.064.169.038.314.07.314.18a.608.608 0 00.18.027c.11-.004.218-.022.323-.052h.005c.108-.032.218-.05.33-.055.044 0 .089.004.132.012l-.173.175.346.034v-.105h.003c.1 0 .17 0 .17.036l-.046.045a.103.103 0 00-.047-.016c-.017-.002-.03.01-.044.038zm5.065-1.95a5.685 5.685 0 00-.695-.324h-.004s0 .004.007.01c.022.011.163.066.689.314h.003zm-3.747-4.213c0 .034.035.07.07.104l.034.034h.034a.129.129 0 01.105-.034h.103v-.105c0-.111-.064-.151-.12-.151a.129.129 0 00-.053.011c-.06 0-.173.03-.173.141zm5.849-.362a.281.281 0 01-.058.012.155.155 0 01-.046.026c-.041.019-.094.042-.094.115v.068h.07c.164.03.326.074.482.132.085.026.164.055.245.078h.07c.068-.035.139-.07.139-.174-.075-.177-.279-.208-.476-.236a1.86 1.86 0 01-.217-.043.402.402 0 00-.115.022zm-2.797.085a.232.232 0 00.138.174h.07a.284.284 0 00.067-.016.283.283 0 01.07-.018h.104l-.069-.069a.21.21 0 00-.056-.149.211.211 0 00-.151-.06c-.06-.003-.174.026-.174.136v.002zm2.357-1.08a.27.27 0 01-.018.07.255.255 0 00-.017.07.128.128 0 00.034.104l.035.035h.07c.14-.006.28-.03.415-.07h.035l.035-.035.026-.049a.232.232 0 00.042-.125c0-.137-.135-.174-.208-.174a.476.476 0 01-.094.031.557.557 0 00-.184.073v-.034a.16.16 0 00-.103-.105l-.037.012a.406.406 0 00-.206.127.189.189 0 00.139.105v-.101l.036.066zm-.625-.14a.16.16 0 00.104.175l.035.034h.035a.13.13 0 01.103-.034h.07v-.105c0-.138-.135-.174-.208-.174-.073 0-.139.032-.139.103v.002zm106.062 16.836a2.751 2.751 0 011.794-2.48c.339-.124.699-.18 1.059-.163a3.033 3.033 0 012.117.84l-.714.692-.197-.124.025-.025c.169-.197 0-.396-.099-.494a1.483 1.483 0 00-1.106-.346 1.955 1.955 0 00-1.513.593 1.987 1.987 0 00-.555 1.533c.022.716.318 1.396.827 1.898a2.76 2.76 0 001.905.795c.615 0 .812-.248.886-.568h.222v.964a3.973 3.973 0 01-.985.124 3.415 3.415 0 01-2.508-.849 3.446 3.446 0 01-1.158-2.39zm-29.254 3.114v-1.137h.247a.473.473 0 00.135.359.474.474 0 00.357.136c.422 0 .836-.424 1.058-.915l-1.968-3.582c-.123-.248-.169-.347-.394-.347v-.2h1.378v.248h-.05c-.098 0-.294.025-.168.271l1.549 2.892 1.034-2.743a.631.631 0 00.073-.248.175.175 0 00-.052-.117.175.175 0 00-.117-.052h-.099v-.2h1.272v.198c-.147 0-.344.05-.516.445l-1.303 3.41a2.787 2.787 0 01-1.182 1.607c-.181.07-.373.104-.567.099a2.018 2.018 0 01-.687-.124zm-31.984-.344v-1.09h.246l.025.247c.025.322.393.57.688.668.245.082.503.116.76.099a1.731 1.731 0 001.649-.741 1.23 1.23 0 00.168-.668 1.156 1.156 0 00-.147-.493c-.32-.445-.886-.494-1.55-.494h-.443V34h.443a1.537 1.537 0 001.402-.543.571.571 0 00.098-.346 1.035 1.035 0 00-.098-.37.984.984 0 00-.566-.495 1.414 1.414 0 00-.837-.17c-.274-.029-.55.03-.787.17-.516.248-.443.494-.422.667l.025.075-.221.074-.345-1.038a3.534 3.534 0 011.131-.37 3.56 3.56 0 01.714-.05c.272 0 .544.024.812.073a1.412 1.412 0 011.23 1.357 1.27 1.27 0 01-1.108 1.187 1.495 1.495 0 011.183.593c.124.192.192.414.196.643.003.326-.073.649-.222.94a1.918 1.918 0 01-1.106.913 3.602 3.602 0 01-1.132.17 3.306 3.306 0 01-1.787-.463zm-10.506.347v-1.14h.246a.468.468 0 00.492.495c.422 0 .837-.424 1.059-.915l-1.969-3.582c-.123-.248-.169-.347-.394-.347v-.2h1.378v.248h-.05c-.097 0-.294.025-.168.271l1.55 2.892 1.057-2.743a.613.613 0 00.072-.244.178.178 0 00-.169-.169h-.099v-.203h1.28v.197c-.147 0-.344.05-.516.445l-1.333 3.41a2.784 2.784 0 01-1.182 1.607c-.18.07-.373.104-.567.099-.235 0-.468-.043-.688-.124v.003zm93.666.024v-.201a.984.984 0 00.518-.446l1.377-2.025a1.746 1.746 0 01-1.426-.866 1.588 1.588 0 01-.149-.692 1.298 1.298 0 01.296-.84 1.825 1.825 0 011.5-.593H160v.17a.268.268 0 00-.217.078.279.279 0 00-.078.217v4.67a.268.268 0 00.015.119.268.268 0 00.163.163.27.27 0 00.117.016v.197h-1.329v-.197a.279.279 0 00.212-.084.293.293 0 00.064-.098.302.302 0 00.019-.115v-2.07h-.962l-1.748 2.594-.882.003zm1.157-4.126c0 .989.984 1.017 1.5 1.017h.936v-2.026h-1.28c-.443-.008-1.156.042-1.156 1.005v.004zm-15.869 4.126v-.201a.271.271 0 00.295-.296v-4.622h-1.28a.58.58 0 00-.368.075.419.419 0 00-.149.346h-.246v-.963h4.824v.966h-.247a.415.415 0 00-.147-.346.62.62 0 00-.369-.075h-1.28v4.622a.277.277 0 00.179.28.27.27 0 00.117.016v.197l-1.329.001zm-30.312 0v-.201a.27.27 0 00.28-.179.292.292 0 00.015-.117v-4.622h-1.28a.58.58 0 00-.368.075.419.419 0 00-.148.346h-.247v-.963h4.823v.966h-.244a.416.416 0 00-.148-.346.584.584 0 00-.369-.075h-1.281v4.622c-.004.04.001.08.015.118a.268.268 0 00.28.178v.197l-1.328.001zm-8.808 0v-.201a.273.273 0 00.216-.08.266.266 0 00.063-.099.26.26 0 00.015-.117v-4.622H99.18v4.622a.271.271 0 00.294.296v.197h-1.328v-.197a.27.27 0 00.295-.296v-4.67a.274.274 0 00-.178-.282.272.272 0 00-.117-.015v-.197h4.727v.197a.286.286 0 00-.276.181.284.284 0 00-.019.116v4.67c-.004.04.001.08.015.118a.266.266 0 00.163.163.266.266 0 00.117.015v.198l-1.331.003zm-18.97 0v-.201a.284.284 0 00.295-.296v-4.67a.274.274 0 00-.178-.282.272.272 0 00-.117-.015v-.197H83.9v.197a.27.27 0 00-.28.18.274.274 0 00-.014.117v4.67a.275.275 0 00.178.281.27.27 0 00.116.015v.198l-1.328.003zm-25.908 0v-.201a.27.27 0 00.295-.296v-4.67c0-.223-.147-.297-.32-.297v-.197h2.042c1.895 0 2.14.939 2.14 1.458 0 1.309-1.6 1.95-3.123 2.47v1.236a.271.271 0 00.295.296v.198l-1.33.003zm1.013-2.273c1.525-.424 2.387-1.187 2.387-1.879 0-.864-.862-.938-1.525-.938h-.866l.004 2.817zm-2.78 2.273l-1.674-2.967c-.373.148-.76.256-1.156.321v2.15a.273.273 0 00.295.296v.198H51.03v-.2a.271.271 0 00.296-.295v-4.67a.274.274 0 00-.178-.282.272.272 0 00-.118-.015v-.197h1.329v.197a.283.283 0 00-.276.181.286.286 0 00-.02.116v1.976a4.36 4.36 0 002.141-.91 1.73 1.73 0 00.615-1.018c0-.247-.074-.321-.221-.346h-.074v-.196h.984a2.569 2.569 0 01-.516 1.556 3.368 3.368 0 01-1.033.84l1.476 2.62a.77.77 0 00.615.445v.198l-1.152.002zm98.562-.024v-.198a.268.268 0 00.217-.079.267.267 0 00.063-.1.262.262 0 00.015-.118v-3.315l-2.757 2.25v1.063a.281.281 0 00.078.218.268.268 0 00.217.079v.197h-1.328v-.197a.268.268 0 00.217-.08.268.268 0 00.078-.217v-4.672a.28.28 0 00-.078-.217.27.27 0 00-.217-.079v-.197h1.328v.197a.28.28 0 00-.211.084.278.278 0 00-.064.097.3.3 0 00-.02.115v2.941l2.756-2.248v-.692a.277.277 0 00-.179-.28.27.27 0 00-.117-.016v-.197h1.329v.197a.27.27 0 00-.28.179.277.277 0 00-.016.117v4.67c-.003.04.002.08.015.119a.284.284 0 00.064.1.267.267 0 00.217.079v.197l-1.327.003zm-9.103 0v-.198c.294-.025.294-.223.294-.347V32.2a.268.268 0 00-.177-.28.273.273 0 00-.117-.016v-.198h2.263v.025a2.466 2.466 0 011.747.445 1.138 1.138 0 01.368.816c.006.178-.028.355-.098.519a1.314 1.314 0 01-.861.69v.026a1.585 1.585 0 011.378 1.507 1.533 1.533 0 01-.935 1.409 3.294 3.294 0 01-1.304.222h-2.558zm1.008-.52h1.181c.567 0 1.846.025 1.846-1.111 0-1.162-1.182-1.26-1.846-1.26h-1.181v2.372zm0-2.89h1.328c.222 0 1.28 0 1.28-.84 0-.742-.76-.841-1.28-.841h-1.328v1.68zm-17.327 3.407v-.197a.268.268 0 00.217-.08.284.284 0 00.064-.1.294.294 0 00.015-.117v-4.672a.276.276 0 00-.179-.28.27.27 0 00-.117-.016v-.197h4.601v.964h-.247c-.098-.424-.393-.396-.614-.396h-2.707v1.656h1.845c.295 0 .516 0 .591-.296h.245v1.111h-.246c-.074-.296-.32-.296-.591-.296h-1.845v2.373h2.755c.492 0 .812-.073.836-.47h.247v1.018l-4.87-.005zm-8.464 0v-.197a.288.288 0 00.213-.084.29.29 0 00.083-.213v-4.672a.276.276 0 00-.179-.28.27.27 0 00-.117-.016v-.197h1.304v.197h.025a.27.27 0 00-.28.179.292.292 0 00-.015.117v4.621h2.337v-4.62a.28.28 0 00-.078-.217.27.27 0 00-.217-.079v-.198h1.328v.197a.27.27 0 00-.28.179.292.292 0 00-.015.117v4.621h2.337v-4.62a.276.276 0 00-.078-.218.268.268 0 00-.217-.079v-.197h1.329v.197a.27.27 0 00-.295.296v4.671c-.004.04.001.08.015.118a.267.267 0 00.163.164.268.268 0 00.117.015v.197l-7.48.001zm-5.511 0v-.197a.268.268 0 00.217-.08.276.276 0 00.077-.218v-4.67a.268.268 0 00-.177-.28.273.273 0 00-.117-.017v-.197h4.577v.964h-.247c-.099-.424-.393-.396-.615-.396h-2.706v1.656h1.845c.294 0 .516 0 .591-.296h.246v1.111h-.246c-.074-.296-.32-.296-.591-.296h-1.845v2.373h2.779c.492 0 .812-.073.837-.47h.246v1.018l-4.871-.005zm-21.947 0v-.197a.27.27 0 00.28-.18.274.274 0 00.015-.117v-3.313l-2.756 2.25v1.062a.274.274 0 00.295.297v.197h-1.328v-.197a.27.27 0 00.28-.18.274.274 0 00.015-.117v-4.67a.274.274 0 00-.295-.297v-.197h1.328v.197a.272.272 0 00-.295.296v2.941l2.761-2.248v-.692a.275.275 0 00-.178-.28.27.27 0 00-.117-.016v-.197h1.328v.197h-.025a.269.269 0 00-.28.179.274.274 0 00-.015.117v4.67a.275.275 0 00.178.282.27.27 0 00.117.016v.197h-1.308zm-22.143 0v-.197a.27.27 0 00.28-.18.274.274 0 00.015-.117v-3.313l-2.754 2.25v1.063a.276.276 0 00.179.281.27.27 0 00.117.016v.197H66.48v-.197a.286.286 0 00.296-.297v-4.672a.274.274 0 00-.296-.296v-.197h1.329v.197a.272.272 0 00-.296.296v2.941l2.756-2.248v-.692a.273.273 0 00-.295-.296v-.197h1.329v.197h-.026a.269.269 0 00-.28.179.274.274 0 00-.014.117v4.67a.273.273 0 00.294.298v.197h-1.305zm9.89-.05h-2.58v-.197a.272.272 0 00.295-.297v-4.67a.272.272 0 00-.295-.297v-.197h1.328v.247h.026a.271.271 0 00-.296.296v1.508a8.465 8.465 0 011.649.123 2.51 2.51 0 011.918 1.31c.09.227.133.471.124.716.002.27-.075.536-.222.763a1.873 1.873 0 01-1.806.692l-.14.003zm-1.5-.469h1.525a1.203 1.203 0 001.23-.569c.075-.136.117-.289.124-.445a1.253 1.253 0 00-.739-1.087 3.717 3.717 0 00-1.722-.445l-.422-.024.003 2.57zm0 0h-.025.024zm63.585-9.813c-.945-1.22-2.26-1.22-3.611-1.22h-2.091c-.642 0-2.598 0-3.307 1.559-.169.304-.235.711-.708.711a.543.543 0 01-.54-.542c0-.407.101-.44.101-1.457 0-.848-.067-1.187-.067-1.626 0-.373.067-.407.507-.745.405-.238.607-.475.911-1.728a72.317 72.317 0 001.35-12.063c0-2.507-.506-2.304-.506-3.222 0-.61.573-.542.978-.542.742 0 2.463.135 3.339.135 1.89 0 2.497-.17 3.273-.17.338 0 1.045-.033 1.045.611a9.655 9.655 0 01-.27 1.017 11.917 11.917 0 00-.236 2.237v11.453c0 .679.101 1.965.641 2.305.202.135.742.203.742.848-.028.24-.073.478-.135.712a5.122 5.122 0 00-.034.711c.029.511.086 1.02.169 1.526a.543.543 0 01-.324.534.54.54 0 01-.216.043c-.536-.001-.671-.715-1.009-1.087h-.002zm-4.727-11.894c-.271 4.07-.676 5.727-.676 6.54 0 .373.102.644.945.644 1.182 0 1.046-.576 1.046-1.22v-9.116h.034c0-.305.033-1.05-.54-1.05-1.004 0-.701 3.083-.803 4.202h-.006zM87.902 27.03c-.944-1.22-2.26-1.22-3.609-1.22h-2.092c-.641 0-2.598 0-3.34 1.559-.134.304-.202.711-.675.711a.571.571 0 01-.574-.542c0-.407.101-.44.101-1.457 0-.848-.067-1.187-.067-1.626 0-.373.067-.407.507-.745.37-.238.607-.475.91-1.728a72.212 72.212 0 001.351-12.063c0-2.507-.506-2.304-.506-3.222 0-.61.573-.542.978-.542.742 0 2.496.135 3.34.135 1.889 0 2.463-.17 3.272-.17.338 0 1.045-.033 1.045.611a5.11 5.11 0 01-.27 1.017 11.91 11.91 0 00-.27 2.237v11.453c0 .679.135 1.965.641 2.305.237.135.742.203.742.848-.016.239-.05.477-.1.712-.029.236-.04.473-.035.711 0 .848.135 1.152.135 1.526a.518.518 0 01-.297.53.51.51 0 01-.21.047c-.537-.001-.706-.715-.977-1.087zm-4.688-11.894c-.236 4.07-.675 5.726-.675 6.539 0 .373.134.644.944.644 1.182 0 1.046-.576 1.046-1.22v-9.115c0-.305.068-1.05-.506-1.05-1.012 0-.708 3.083-.809 4.202zm21.422 7.59a9.761 9.761 0 011.283-4.27c1.214-2.168 2.395-2.846 2.395-3.49a36.394 36.394 0 00-1.653-5.083c-1.248-3.151-1.652-2.847-1.652-3.221 0-.27.202-.577 1.013-.577a3.48 3.48 0 01.607.034c.371.035.81.103 1.182.103.316-.005.631-.028.945-.068.302-.04.606-.063.911-.068.709 0 .776.44.776.745a6.16 6.16 0 01-.067.78c-.04.258-.062.518-.068.78 0 1.32.574 2.373.911 2.373.37 0 .844-1.356.844-1.999a1.923 1.923 0 00-.574-1.322c-.169-.202-.472-.44-.472-.779 0-.543.641-.576.945-.576.675 0 1.181.135 1.62.135.573 0 1.079-.135 1.45-.135.709 0 1.182.407 1.182 2.034a8.348 8.348 0 01-1.923 4.88c-.776 1.017-1.586 1.728-1.586 2.676 0 1.119 1.957 5.659 2.16 6.1 1.214 2.745 1.754 3.084 1.754 3.561 0 .34-.338.475-.911.475-1.113 0-.101-.102-2.026-.102a9.503 9.503 0 00-.978.034 4.538 4.538 0 01-.709.068c-.945 0-.911-.61-.911-.712.093-.47.149-.946.169-1.424 0-1.118-1.013-4.1-1.721-4.1-.304 0-.911.712-.911 2.338a3.206 3.206 0 001.484 2.982c.203.102.574.203.574.577 0 .44-1.012.711-1.619 1.118-.742.509-1.248 1.187-1.754 1.187-.746-.003-2.67-2.107-2.67-5.054zm14.946-2.847v-7.793h.034c0-1.118 0-6.133 4.69-6.133 4.285 0 4.656 3.524 4.656 5.795v7.657c0 2.27-.202 6.573-4.757 6.573-3.408 0-4.623-2.371-4.623-6.098zm3.576-6.303v5.626c0 1.287.068 2.676 1.182 2.676 1.282 0 1.113-1.728 1.113-2.812v-5.388c0-1.017 0-2.543-1.214-2.543-1.081.002-1.081 1.527-1.081 2.442zm-30.835 6.303v-7.793c0-1.118 0-6.133 4.69-6.133 4.319 0 4.689 3.524 4.689 5.795v7.657c0 2.27-.169 6.573-4.757 6.573-3.442 0-4.622-2.371-4.622-6.098zm3.545-6.303v5.626c0 1.287.067 2.676 1.148 2.676 1.281 0 1.146-1.728 1.146-2.812v-5.388c0-1.017 0-2.543-1.214-2.543-1.083.002-1.083 1.527-1.083 2.442h.003zM65.572 19.88v-7.794c0-1.118 0-6.133 4.69-6.133 4.284 0 4.655 3.524 4.655 5.795v7.657c0 2.27-.169 6.573-4.727 6.573-3.436 0-4.618-2.371-4.618-6.098zm3.508-6.303v5.626h.034c0 1.287.101 2.676 1.182 2.676 1.281 0 1.112-1.729 1.112-2.812v-5.389c0-1.017 0-2.543-1.214-2.543-1.116.002-1.116 1.527-1.116 2.442h.002zM55.077 25.672c-1.026 0-2.05.058-3.07.17-.844 0-.91-.577-.91-.848 0-1.423.606-.848.606-5.896V8.87c0-1.187-.034-3.016-.101-3.829-.102-1.152-.237-1.526-.237-2.067 0-.88.574-.948.979-.948.506 0 1.013.034 1.552.067.507.034 1.045.034 1.585.034 1.182 0 1.923-.101 2.8-.101 1.013 0 3.546.61 3.546 6.336 0 1.322-.136 3.118-1.013 4.202-.27.34-.676.678-.676.949 0 .305.507.915.877 1.559a10.53 10.53 0 011.384 5.523c0 2.713-1.384 5.252-4.285 5.252a27.969 27.969 0 00-3.037-.174zm.776-9.758v4.948c0 .44-.034 1.219 1.08 1.219.675 0 1.315-.034 1.315-2 0-2.304-1.35-5.014-2.091-5.014-.304 0-.304.541-.304.847zm-.034-8.032v1.255h.034a1.2 1.2 0 00.72 1.227c.156.067.325.099.494.094 1.046 0 1.046-1.457 1.046-1.965 0-1.322-.506-1.762-1.282-1.762-.843 0-1.011.678-1.011 1.152h-.001zm92.438 17.211c.093-.474.228-.94.406-1.389a13.82 13.82 0 00.371-3.355V9.747h.034c0-1.118-.27-1.423-.844-1.423a1.023 1.023 0 00-.946.542c-.134.135-.37.475-.741.475-.203 0-.641-.102-.641-.95 0-.711.101-.812.101-2.744a16.667 16.667 0 00-.202-2.677c0-.812.507-.949 1.653-.949.664 0 1.328.033 1.989.102.56.088 1.123.145 1.689.17.911 0 1.585-.17 2.125-.17.507 0 .54.237.54.407a11.886 11.886 0 01-.406 1.696c-.111.73-.179 1.466-.201 2.204v4.578c0 .17 0 .372.303.372.231-.058.457-.137.675-.236a5.76 5.76 0 011.923-.34c3.812 0 3.913 3.592 3.913 4.676v6.27c0 4.032-4.051 4.032-5.06 4.032-.54 0-1.013 0-1.553-.034a37.694 37.694 0 00-1.955-.068c-2.058 0-.507.136-2.396.136-.371-.007-.776-.144-.776-.72l-.001-.003zm4.96-7.793v2.27c0 2.168.202 2.507 1.147 2.507.844 0 1.552-.135 1.552-1.66v-3.283c0-.745-.067-1.898-1.316-1.898-1.45 0-1.383 1.322-1.383 2.067V17.3z" fill="#fff"/></svg>