<svg width="11" height="17" fill="none" xmlns="http://www.w3.org/2000/svg"><path class="fill-good" d="M9.004 10.85c.975-.632 1.432-.994 1.036-1.778-.214-.421-.853-.783-1.646-.15 0 0-1.127.874-2.894.874-1.798 0-2.895-.874-2.895-.874-.822-.663-1.432-.271-1.675.15-.366.784.06 1.146 1.035 1.778.854.543 2.011.754 2.773.814l-.64.633c-.883.874-1.706 1.717-2.315 2.29-.853.844.518 2.2 1.401 1.386l2.316-2.32c.883.904 1.737 1.748 2.315 2.32.854.844 2.255-.512 1.402-1.386l-2.955-2.923c.761-.06 1.889-.271 2.742-.814zM1.539 4.703c0 2.17 1.767 3.917 3.96 3.917A3.925 3.925 0 009.43 4.703 3.925 3.925 0 005.5.786c-2.194 0-3.961 1.747-3.961 3.917zm2.01 0c0-1.055.854-1.929 1.95-1.929 1.067 0 1.92.874 1.92 1.93A1.927 1.927 0 015.5 6.631a1.933 1.933 0 01-1.95-1.929z" fill="#333"/></svg>