<svg width="17" height="11" fill="none" xmlns="http://www.w3.org/2000/svg"><path class="fill-good" d="M16.33 1.341c.092-.361 0-.663-.548-.663h-1.798c-.457 0-.67.242-.792.513 0 0-.914 2.2-2.194 3.646-.426.392-.609.542-.853.542-.091 0-.274-.15-.274-.512V1.341c0-.452-.122-.663-.518-.663H6.55c-.305 0-.457.211-.457.422 0 .422.64.513.7 1.718V5.44c0 .572-.09.693-.334.693-.61 0-2.072-2.23-2.956-4.761C3.32.889 3.138.678 2.68.678H.883c-.488 0-.61.242-.61.513 0 .482.61 2.802 2.834 5.906 1.493 2.11 3.595 3.224 5.484 3.224 1.128 0 1.28-.24 1.28-.663 0-2.019-.091-2.23.457-2.23.274 0 .731.151 1.798 1.176 1.219 1.205 1.432 1.717 2.102 1.717h1.798c.518 0 .762-.24.61-.753-.336-1.025-2.621-3.194-2.743-3.345-.274-.331-.183-.482 0-.783 0 0 2.194-3.074 2.438-4.099z" fill="#333"/></svg>