<svg id="price1" xmlns="http://www.w3.org/2000/svg" width="67" height="54.438"><defs><linearGradient id="linear-gradient" x1=".5" x2=".5" y2="1" gradientUnits="objectBoundingBox"><stop offset="0" stop-color="#9f78ff"/><stop offset=".547" stop-color="#f067ff"/><stop offset="1" stop-color="#5c33c2"/></linearGradient></defs><path id="Path_30" data-name="Path 30" d="M67 54.02A6.026 6.026 0 0060.98 48H6.02A6.026 6.026 0 000 54.02v10.992a5.992 5.992 0 001.462 3.926A5.992 5.992 0 000 72.863v10.992a6.026 6.026 0 006.02 6.02h21.2v8.375H14.656a2.094 2.094 0 000 4.188h37.688a2.094 2.094 0 100-4.188H39.781v-8.375h21.2A6.026 6.026 0 0067 83.855V72.863a5.992 5.992 0 00-1.462-3.926A5.992 5.992 0 0067 65.012zm-62.812 0a1.834 1.834 0 011.832-1.832h54.96a1.834 1.834 0 011.832 1.832v10.992a1.834 1.834 0 01-1.832 1.832H6.02a1.834 1.834 0 01-1.832-1.832zm31.406 44.23h-4.188v-8.375h4.188zm27.219-14.395a1.834 1.834 0 01-1.832 1.832H6.02a1.834 1.834 0 01-1.832-1.832V72.863a1.834 1.834 0 011.832-1.832h54.96a1.834 1.834 0 011.832 1.832z" transform="translate(0 -48)" fill="url(#linear-gradient)"/><path id="Path_31" data-name="Path 31" d="M91.141 118.281a3.141 3.141 0 113.141-3.141 3.144 3.144 0 01-3.141 3.141z" transform="translate(-76.484 -103.625)" fill="url(#linear-gradient)"/><path id="Path_32" data-name="Path 32" d="M91.141 262.281a3.141 3.141 0 113.141-3.141 3.144 3.144 0 01-3.141 3.141z" transform="translate(-76.484 -228.781)" fill="url(#linear-gradient)"/><path id="Path_33" data-name="Path 33" d="M199.406 124.188h-29.312a2.094 2.094 0 010-4.187h29.312a2.094 2.094 0 110 4.188z" transform="translate(-146.016 -110.578)" fill="url(#linear-gradient)"/><path id="Path_34" data-name="Path 34" d="M199.406 268.188h-29.312a2.094 2.094 0 010-4.187h29.312a2.094 2.094 0 110 4.188z" transform="translate(-146.016 -235.734)" fill="url(#linear-gradient)"/></svg>