<svg xmlns="http://www.w3.org/2000/svg" width="54.437" height="54.437"><defs><linearGradient id="linear-gradient" x1=".5" x2=".5" y2="1" gradientUnits="objectBoundingBox"><stop offset="0" stop-color="#9f78ff"/><stop offset=".547" stop-color="#f067ff"/><stop offset="1" stop-color="#5c33c2"/></linearGradient></defs><path id="price3" d="M37.532 44.124a3.193 3.193 0 003.19-3.19V36.45A14.354 14.354 0 1039.4 7.772a13.47 13.47 0 00-25.667 5.233 11.811 11.811 0 10-1.823 23.464h1.807v4.466a3.193 3.193 0 003.19 3.19h8.719v7.124H13.609a1.595 1.595 0 000 3.19h27.219a1.595 1.595 0 100-3.19H28.814v-7.125zm-20.627-13.4V23.71h13.822v1.807a1.595 1.595 0 103.19 0V23.71h3.615v7.017H16.903zM3.19 24.667a8.7 8.7 0 0111.666-8.095 1.6 1.6 0 002.128-1.693 10.3 10.3 0 0119.893-4.893 1.6 1.6 0 001.793 1.043 11.167 11.167 0 111.982 22.229 3.167 3.167 0 00-.36-.936 3.168 3.168 0 00.429-1.595V23.71a3.193 3.193 0 00-3.19-3.19H16.905a3.193 3.193 0 00-3.19 3.19v7.017a3.169 3.169 0 00.429 1.595 3.165 3.165 0 00-.365.957h-1.871a8.676 8.676 0 01-8.718-8.612zm13.716 9.25h13.821v1.807a1.595 1.595 0 103.19 0v-1.807h3.615s.011 7.017 0 7.017H16.905z" fill="url(#linear-gradient)"/></svg>