<svg id="services3" xmlns="http://www.w3.org/2000/svg" width="54.295" height="54.295"><defs><linearGradient id="linear-gradient" x1=".5" x2=".5" y2="1" gradientUnits="objectBoundingBox"><stop offset="0" stop-color="#9f78ff"/><stop offset="1" stop-color="#f067ff"/></linearGradient></defs><path id="Path_86" data-name="Path 86" d="M51.114 25.345a3.185 3.185 0 003.181-3.181V3.181A3.185 3.185 0 0051.114 0H3.181A3.185 3.185 0 000 3.181v18.982a3.185 3.185 0 003.181 3.181h9.65v3.606h-9.65A3.185 3.185 0 000 32.132v18.982a3.185 3.185 0 003.181 3.181h47.933a3.185 3.185 0 003.181-3.181V32.132a3.185 3.185 0 00-3.181-3.181h-9.65v-3.606zM3.181 3.181h47.933v18.982H3.18zm47.935 47.932H3.182V32.132h47.932zM38.282 28.95H16.013v-3.605h22.269z" fill="url(#linear-gradient)"/><path id="Path_87" data-name="Path 87" d="M334.832 76.665A5.832 5.832 0 10329 70.832a5.839 5.839 0 005.832 5.833zm0-8.484a2.651 2.651 0 11-2.651 2.651 2.654 2.654 0 012.651-2.651z" transform="translate(-294.111 -58.107)" fill="url(#linear-gradient)"/><path id="Path_88" data-name="Path 88" d="M68.287 65h-1.7a1.591 1.591 0 000 3.181h1.7a1.591 1.591 0 000-3.181z" transform="translate(-58.107 -58.107)" fill="url(#linear-gradient)"/><path id="Path_89" data-name="Path 89" d="M68.287 145h-1.7a1.591 1.591 0 000 3.181h1.7a1.591 1.591 0 100-3.181z" transform="translate(-58.107 -129.624)" fill="url(#linear-gradient)"/><path id="Path_90" data-name="Path 90" d="M146.591 68.181h1.7a1.591 1.591 0 100-3.181h-1.7a1.591 1.591 0 000 3.181z" transform="translate(-129.624 -58.107)" fill="url(#linear-gradient)"/><path id="Path_91" data-name="Path 91" d="M146.591 148.181h1.7a1.591 1.591 0 100-3.181h-1.7a1.591 1.591 0 000 3.181z" transform="translate(-129.624 -129.624)" fill="url(#linear-gradient)"/><path id="Path_92" data-name="Path 92" d="M226.591 68.181h1.7a1.591 1.591 0 100-3.181h-1.7a1.591 1.591 0 100 3.181z" transform="translate(-201.14 -58.107)" fill="url(#linear-gradient)"/><path id="Path_93" data-name="Path 93" d="M226.591 148.181h1.7a1.591 1.591 0 100-3.181h-1.7a1.591 1.591 0 100 3.181z" transform="translate(-201.14 -129.624)" fill="url(#linear-gradient)"/><path id="Path_94" data-name="Path 94" d="M329 342.832a5.832 5.832 0 105.832-5.832 5.839 5.839 0 00-5.832 5.832zm5.832-2.651a2.651 2.651 0 11-2.651 2.651 2.654 2.654 0 012.651-2.651z" transform="translate(-294.111 -301.263)" fill="url(#linear-gradient)"/><path id="Path_95" data-name="Path 95" d="M68.287 337h-1.7a1.591 1.591 0 000 3.181h1.7a1.591 1.591 0 000-3.181z" transform="translate(-58.107 -301.263)" fill="url(#linear-gradient)"/><path id="Path_96" data-name="Path 96" d="M68.287 417h-1.7a1.591 1.591 0 000 3.181h1.7a1.591 1.591 0 000-3.181z" transform="translate(-58.107 -372.779)" fill="url(#linear-gradient)"/><path id="Path_97" data-name="Path 97" d="M148.287 337h-1.7a1.591 1.591 0 000 3.181h1.7a1.591 1.591 0 100-3.181z" transform="translate(-129.624 -301.263)" fill="url(#linear-gradient)"/><path id="Path_98" data-name="Path 98" d="M148.287 417h-1.7a1.591 1.591 0 000 3.181h1.7a1.591 1.591 0 100-3.181z" transform="translate(-129.624 -372.779)" fill="url(#linear-gradient)"/><path id="Path_99" data-name="Path 99" d="M228.287 337h-1.7a1.591 1.591 0 100 3.181h1.7a1.591 1.591 0 100-3.181z" transform="translate(-201.14 -301.263)" fill="url(#linear-gradient)"/><path id="Path_100" data-name="Path 100" d="M228.287 417h-1.7a1.591 1.591 0 100 3.181h1.7a1.591 1.591 0 100-3.181z" transform="translate(-201.14 -372.779)" fill="url(#linear-gradient)"/></svg>