<svg id="services1" xmlns="http://www.w3.org/2000/svg" width="54.295" height="54.295"><defs><linearGradient id="linear-gradient" x1=".5" x2=".5" y2="1" gradientUnits="objectBoundingBox"><stop offset="0" stop-color="#9f78ff"/><stop offset="1" stop-color="#f067ff"/></linearGradient></defs><path id="Path_61" data-name="Path 61" d="M0 16.119h3.287V19.3H0v15.907h3.287v3.181H0v15.907h54.295V38.388h-3.288v-3.181h3.287V19.3h-3.287v-3.181h3.287V0H0zm51.114 34.995H3.181V41.57h47.933zm-3.288-12.726H6.469v-3.181h41.357zm3.287-6.363H3.181v-9.544h47.933zM47.826 19.3H6.469v-3.181h41.357zM3.181 3.181h47.933v9.756H3.181z" fill="url(#linear-gradient)"/><path id="Path_62" data-name="Path 62" d="M61 62h3.181v3.181H61z" transform="translate(-54.531 -55.425)" fill="url(#linear-gradient)"/><path id="Path_63" data-name="Path 63" d="M121 62h3.181v3.181H121z" transform="translate(-108.169 -55.425)" fill="url(#linear-gradient)"/><path id="Path_64" data-name="Path 64" d="M181 62h3.181v3.181H181z" transform="translate(-161.806 -55.425)" fill="url(#linear-gradient)"/><path id="Path_65" data-name="Path 65" d="M301 62h15.907v3.181H301z" transform="translate(-269.081 -55.425)" fill="url(#linear-gradient)"/><path id="Path_66" data-name="Path 66" d="M61 242h3.181v3.181H61z" transform="translate(-54.531 -216.337)" fill="url(#linear-gradient)"/><path id="Path_67" data-name="Path 67" d="M121 242h3.181v3.181H121z" transform="translate(-108.169 -216.337)" fill="url(#linear-gradient)"/><path id="Path_68" data-name="Path 68" d="M181 242h3.181v3.181H181z" transform="translate(-161.806 -216.337)" fill="url(#linear-gradient)"/><path id="Path_69" data-name="Path 69" d="M301 242h15.907v3.181H301z" transform="translate(-269.081 -216.337)" fill="url(#linear-gradient)"/><path id="Path_70" data-name="Path 70" d="M61 422h3.181v3.181H61z" transform="translate(-54.531 -377.249)" fill="url(#linear-gradient)"/><path id="Path_71" data-name="Path 71" d="M121 422h3.181v3.181H121z" transform="translate(-108.169 -377.249)" fill="url(#linear-gradient)"/><path id="Path_72" data-name="Path 72" d="M181 422h3.181v3.181H181z" transform="translate(-161.806 -377.249)" fill="url(#linear-gradient)"/><path id="Path_73" data-name="Path 73" d="M301 422h15.907v3.181H301z" transform="translate(-269.081 -377.249)" fill="url(#linear-gradient)"/></svg>