<svg id="services4" xmlns="http://www.w3.org/2000/svg" width="54.295" height="54.295"><defs><linearGradient id="linear-gradient" x1=".5" x2=".5" y2="1" gradientUnits="objectBoundingBox"><stop offset="0" stop-color="#9f78ff"/><stop offset="1" stop-color="#f067ff"/></linearGradient></defs><path id="Path_74" data-name="Path 74" d="M25.723 40.447a14.723 14.723 0 1114.724-14.724 14.74 14.74 0 01-14.724 14.724zm0-26.049a11.326 11.326 0 1011.326 11.325A11.339 11.339 0 0025.723 14.4z" transform="translate(13.848 13.848)" fill="url(#linear-gradient)"/><path id="Path_75" data-name="Path 75" d="M28.157 20.148H15.7a1.7 1.7 0 010-3.4h12.457a1.7 1.7 0 010 3.4z" transform="translate(17.643 21.14)" fill="url(#linear-gradient)"/><path id="Path_76" data-name="Path 76" d="M18.44 18.4H2.2a1.7 1.7 0 110-3.4h16.24a1.7 1.7 0 110 3.4z" transform="translate(.633 18.931)" fill="url(#linear-gradient)"/><ellipse id="Ellipse_5" data-name="Ellipse 5" cx="2.28" cy="2.333" rx="2.28" ry="2.333" transform="translate(27.534 9.107)" fill="url(#linear-gradient)"/><circle id="Ellipse_6" data-name="Ellipse 6" cx="2.333" cy="2.333" r="2.333" transform="translate(18.32 9.107)" fill="url(#linear-gradient)"/><circle id="Ellipse_7" data-name="Ellipse 7" cx="2.333" cy="2.333" r="2.333" transform="translate(9.107 9.107)" fill="url(#linear-gradient)"/><path id="Path_77" data-name="Path 77" d="M23.2 54.295H6.219A6.225 6.225 0 010 48.074V6.221A6.225 6.225 0 016.219 0h28.266A6.225 6.225 0 0140.7 6.221v12.443a1.7 1.7 0 01-1.7 1.7H3.392v27.71A2.831 2.831 0 006.219 50.9H23.2a1.7 1.7 0 010 3.393zM3.392 16.967h33.92V6.221a2.831 2.831 0 00-2.827-2.828H6.219a2.831 2.831 0 00-2.827 2.828z" fill="url(#linear-gradient)"/></svg>