<svg id="services6" xmlns="http://www.w3.org/2000/svg" width="54.295" height="54.295"><defs><linearGradient id="linear-gradient" x1=".5" x2=".5" y2="1" gradientUnits="objectBoundingBox"><stop offset="0" stop-color="#9f78ff"/><stop offset="1" stop-color="#f067ff"/></linearGradient></defs><path id="Path_82" data-name="Path 82" d="M27.147 14.245C24.369 14.245 0 14.046 0 7.122S24.369 0 27.147 0s27.148.2 27.148 7.122-24.369 7.123-27.148 7.123zM3.593 7.122c1.656 1.349 9.6 3.561 23.555 3.561S49.046 8.471 50.7 7.122c-1.656-1.349-9.6-3.561-23.555-3.561S5.249 5.774 3.593 7.122zm47.37.275z" fill="url(#linear-gradient)"/><path id="Path_83" data-name="Path 83" d="M27.147 17.153C24.369 17.153 0 16.954 0 10.031A1.741 1.741 0 011.7 8.25a1.729 1.729 0 011.682 1.576c1.045 1.313 9.076 3.765 23.765 3.765s22.72-2.453 23.765-3.765a1.694 1.694 0 013.382.2c0 6.923-24.369 7.122-27.147 7.122zM50.9 10.028zm-47.508 0z" transform="translate(0 10.243)" fill="url(#linear-gradient)"/><path id="Path_84" data-name="Path 84" d="M27.147 23.153C24.369 23.153 0 22.954 0 16.031a1.741 1.741 0 011.7-1.781 1.729 1.729 0 011.685 1.576c1.045 1.313 9.076 3.765 23.765 3.765s22.72-2.453 23.765-3.765a1.694 1.694 0 013.382.2c0 6.923-24.369 7.122-27.147 7.122zM50.9 16.028zm-47.508 0z" transform="translate(0 17.692)" fill="url(#linear-gradient)"/><path id="Path_85" data-name="Path 85" d="M27.147 51.2C24.369 51.2 0 51.014 0 44.451V3.938a1.7 1.7 0 013.393 0v40.331c1.088 1.251 9.117 3.558 23.754 3.558S49.813 45.52 50.9 44.269V3.938a1.7 1.7 0 013.393 0v40.513c.002 6.563-24.367 6.749-27.146 6.749z" transform="translate(0 3.092)" fill="url(#linear-gradient)"/><circle id="Ellipse_17" data-name="Ellipse 17" cx="2.333" cy="2.333" r="2.333" transform="translate(8.693 29.275)" fill="url(#linear-gradient)"/><ellipse id="Ellipse_18" data-name="Ellipse 18" cx="2.333" cy="2.439" rx="2.333" ry="2.439" transform="translate(8.693 15.489)" fill="url(#linear-gradient)"/><ellipse id="Ellipse_19" data-name="Ellipse 19" cx="2.333" cy="2.492" rx="2.333" ry="2.492" transform="translate(8.693 42.384)" fill="url(#linear-gradient)"/></svg>