<svg id="services2" xmlns="http://www.w3.org/2000/svg" width="54.295" height="54.295"><defs><linearGradient id="linear-gradient" x1=".5" x2=".5" y2="1" gradientUnits="objectBoundingBox"><stop offset="0" stop-color="#9f78ff"/><stop offset="1" stop-color="#f067ff"/></linearGradient></defs><path id="Path_81" data-name="Path 81" d="M48.3 42.291a6 6 0 00-5.778 4.409h-9.587a6.02 6.02 0 00-4.19-4.2v-6.06h15.772a9.614 9.614 0 00.726-19.2A8.54 8.54 0 0034.222 9.9a10.187 10.187 0 00-20.37.3v.713h-.907a12.766 12.766 0 000 25.533h12.623v6.06a6.019 6.019 0 00-4.19 4.2h-9.6a6 6 0 100 3.181h9.6a5.991 5.991 0 0011.557 0h9.587a5.995 5.995 0 105.778-7.596zM3.372 23.681a9.59 9.59 0 019.573-9.581h4.084v-3.9a7.01 7.01 0 1114.02 0v5.4l2.53-1.865a5.306 5.306 0 013.17-1.041 5.365 5.365 0 015.351 5.367 5.494 5.494 0 01-.032.581l-.188 1.76h2.633a6.432 6.432 0 010 12.864H12.945a9.589 9.589 0 01-9.572-9.585zm2.622 27.433a2.821 2.821 0 112.817-2.821 2.822 2.822 0 01-2.817 2.821zm21.162 0a2.821 2.821 0 112.817-2.821 2.822 2.822 0 01-2.817 2.821zm21.145 0a2.821 2.821 0 112.817-2.821 2.822 2.822 0 01-2.818 2.821z" fill="url(#linear-gradient)"/></svg>